<svg width="31" height="26" viewBox="0 0 31 26" fill="none" xmlns="http://www.w3.org/2000/svg">
<path d="M15.2216 20.3098C17.1243 20.3098 18.7418 19.6967 20.0742 18.4707C21.4066 17.2446 22.0723 15.7566 22.0713 14.0067C22.0713 12.2559 21.4051 10.7674 20.0727 9.54139C18.7403 8.31533 17.1233 7.70277 15.2216 7.7037C13.3189 7.7037 11.7013 8.31673 10.3689 9.54279C9.03655 10.7688 8.37086 12.2568 8.37188 14.0067C8.37188 15.7576 9.03807 17.246 10.3705 18.4721C11.7029 19.6981 13.3199 20.3107 15.2216 20.3098ZM15.2216 17.5084C14.1561 17.5084 13.2555 17.1699 12.5198 16.4929C11.784 15.8159 11.4162 14.9872 11.4162 14.0067C11.4162 13.0263 11.784 12.1975 12.5198 11.5205C13.2555 10.8435 14.1561 10.505 15.2216 10.505C16.2871 10.505 17.1877 10.8435 17.9234 11.5205C18.6591 12.1975 19.027 13.0263 19.027 14.0067C19.027 14.9872 18.6591 15.8159 17.9234 16.4929C17.1877 17.1699 16.2871 17.5084 15.2216 17.5084ZM3.04432 25.2121C2.20713 25.2121 1.4902 24.9376 0.89351 24.3885C0.296823 23.8395 -0.00101219 23.1802 2.58431e-06 22.4108V5.60269C2.58431e-06 4.83232 0.298346 4.17261 0.895032 3.62354C1.49172 3.07448 2.20815 2.80041 3.04432 2.80135H7.83912L10.6551 0H19.7881L22.6041 2.80135H27.3989C28.236 2.80135 28.953 3.07588 29.5497 3.62494C30.1464 4.17401 30.4442 4.83326 30.4432 5.60269V22.4108C30.4432 23.1811 30.1448 23.8409 29.5482 24.3899C28.9515 24.939 28.235 25.2131 27.3989 25.2121H3.04432ZM27.3989 22.4108V5.60269H21.2341L18.4562 2.80135H11.987L9.20906 5.60269H3.04432V22.4108H27.3989Z" fill="#4B4B4B" fill-opacity="0.4"/>
</svg>
