<svg width="34" height="53" viewBox="0 0 34 53" fill="none" xmlns="http://www.w3.org/2000/svg">
<path d="M34 17.25C34 19.89 32.05 22.08 29.5 22.44V27C29.5 27.7956 29.1839 28.5587 28.6213 29.1213C28.0587 29.6839 27.2956 30 26.5 30H20.8V29.55C20.8 28.4759 20.3733 27.4457 19.6138 26.6862C18.8543 25.9267 17.8241 25.5 16.75 25.5C14.5 25.5 12.7 27.315 12.7 29.55V30H7C6.20435 30 5.44129 29.6839 4.87868 29.1213C4.31607 28.5587 4 27.7956 4 27V21.3H4.45C6.685 21.3 8.5 19.5 8.5 17.25C8.5 15 6.685 13.2 4.45 13.2H4V7.5C4 6.70435 4.31607 5.94129 4.87868 5.37868C5.44129 4.81607 6.20435 4.5 7 4.5H11.56C11.92 1.95 14.11 0 16.75 0C19.39 0 21.58 1.95 21.94 4.5H26.5C27.2956 4.5 28.0587 4.81607 28.6213 5.37868C29.1839 5.94129 29.5 6.70435 29.5 7.5V12.06C32.05 12.42 34 14.61 34 17.25ZM26.5 19.5H28.75C29.3467 19.5 29.919 19.2629 30.341 18.841C30.7629 18.419 31 17.8467 31 17.25C31 16.6533 30.7629 16.081 30.341 15.659C29.919 15.2371 29.3467 15 28.75 15H26.5V7.5H19V5.25C19 4.65326 18.7629 4.08097 18.341 3.65901C17.919 3.23705 17.3467 3 16.75 3C16.1533 3 15.581 3.23705 15.159 3.65901C14.7371 4.08097 14.5 4.65326 14.5 5.25V7.5H7V10.68C9.64 11.7 11.5 14.25 11.5 17.25C11.5 20.25 9.625 22.8 7 23.82V27H10.18C10.694 25.6752 11.5964 24.5366 12.7688 23.7335C13.9412 22.9305 15.3289 22.5005 16.75 22.5C19.75 22.5 22.3 24.375 23.32 27H26.5V19.5Z" fill="#4B4B4B" fill-opacity="0.4"/>
<path d="M8.775 45.3915V49.0965C7.84333 49.7682 6.76 50.104 5.525 50.104C4.76667 50.104 4.07983 49.987 3.4645 49.753C2.8535 49.5147 2.33133 49.1853 1.898 48.765C1.46467 48.3403 1.131 47.8355 0.897 47.2505C0.663 46.6655 0.546 46.022 0.546 45.32C0.546 44.6137 0.658667 43.968 0.884 43.383C1.10933 42.7937 1.43217 42.2888 1.8525 41.8685C2.27283 41.4438 2.77983 41.1167 3.3735 40.887C3.96717 40.653 4.6345 40.536 5.3755 40.536C5.7525 40.536 6.10133 40.5663 6.422 40.627C6.747 40.6833 7.04817 40.7635 7.3255 40.8675C7.60283 40.9715 7.8585 41.0972 8.0925 41.2445C8.3265 41.3918 8.541 41.5565 8.736 41.7385L8.3005 42.434C8.23117 42.5423 8.14233 42.6095 8.034 42.6355C7.92567 42.6615 7.80867 42.6355 7.683 42.5575C7.55733 42.4838 7.423 42.4058 7.28 42.3235C7.14133 42.2412 6.981 42.1653 6.799 42.096C6.617 42.0223 6.40683 41.9638 6.1685 41.9205C5.93017 41.8728 5.6485 41.849 5.3235 41.849C4.8295 41.849 4.38317 41.9313 3.9845 42.096C3.59017 42.2563 3.25217 42.4882 2.9705 42.7915C2.68883 43.0905 2.47217 43.4545 2.3205 43.8835C2.16883 44.3125 2.093 44.7913 2.093 45.32C2.093 45.879 2.17317 46.3795 2.3335 46.8215C2.49383 47.2592 2.72133 47.6318 3.016 47.9395C3.31067 48.2428 3.666 48.4747 4.082 48.635C4.50233 48.7953 4.97033 48.8755 5.486 48.8755C5.87167 48.8755 6.214 48.8343 6.513 48.752C6.81633 48.6697 7.11317 48.5548 7.4035 48.4075V46.5485H6.097C5.99733 46.5485 5.91933 46.5225 5.863 46.4705C5.80667 46.4142 5.7785 46.3427 5.7785 46.256V45.3915H8.775ZM13.8266 47.101C13.3283 47.1183 12.908 47.1595 12.5656 47.2245C12.2233 47.2852 11.946 47.3653 11.7336 47.465C11.5213 47.5603 11.3675 47.6752 11.2721 47.8095C11.1811 47.9438 11.1356 48.0912 11.1356 48.2515C11.1356 48.4075 11.1595 48.5418 11.2071 48.6545C11.2591 48.7628 11.3285 48.8538 11.4151 48.9275C11.5061 48.9968 11.6101 49.0488 11.7271 49.0835C11.8485 49.1138 11.9806 49.129 12.1236 49.129C12.4876 49.129 12.7996 49.0618 13.0596 48.9275C13.324 48.7888 13.5796 48.5895 13.8266 48.3295V47.101ZM10.1216 44.293C10.8713 43.5953 11.764 43.2465 12.7996 43.2465C13.181 43.2465 13.519 43.3093 13.8136 43.435C14.1126 43.5563 14.3618 43.7297 14.5611 43.955C14.7648 44.1803 14.9186 44.449 15.0226 44.761C15.131 45.0687 15.1851 45.411 15.1851 45.788V50H14.5611C14.4268 50 14.325 49.9805 14.2556 49.9415C14.1863 49.8982 14.1278 49.8137 14.0801 49.688L13.9436 49.1485C13.7746 49.3002 13.6078 49.4367 13.4431 49.558C13.2785 49.675 13.1073 49.7747 12.9296 49.857C12.7563 49.9393 12.5678 50 12.3641 50.039C12.1648 50.0823 11.9438 50.104 11.7011 50.104C11.4325 50.104 11.1811 50.0672 10.9471 49.9935C10.7175 49.9198 10.5181 49.8093 10.3491 49.662C10.1801 49.5103 10.0458 49.324 9.94612 49.103C9.85078 48.882 9.80312 48.622 9.80312 48.323C9.80312 48.0673 9.87028 47.8182 10.0046 47.5755C10.1433 47.3328 10.3686 47.1162 10.6806 46.9255C10.997 46.7305 11.4108 46.5702 11.9221 46.4445C12.4378 46.3188 13.0726 46.2473 13.8266 46.23V45.788C13.8266 45.3113 13.7248 44.956 13.5211 44.722C13.3175 44.488 13.0185 44.371 12.6241 44.371C12.3555 44.371 12.1301 44.4057 11.9481 44.475C11.7661 44.54 11.608 44.6115 11.4736 44.6895C11.3393 44.7675 11.2201 44.8412 11.1161 44.9105C11.0121 44.9755 10.9016 45.008 10.7846 45.008C10.6893 45.008 10.607 44.9842 10.5376 44.9365C10.4726 44.8845 10.4185 44.8217 10.3751 44.748L10.1216 44.293ZM16.8222 50V43.37H17.6672C17.8579 43.37 17.9792 43.4588 18.0312 43.6365L18.1222 44.215C18.2435 44.0763 18.3692 43.9507 18.4992 43.838C18.6292 43.721 18.7679 43.6213 18.9152 43.539C19.0669 43.4523 19.2272 43.3852 19.3962 43.3375C19.5695 43.2898 19.7559 43.266 19.9552 43.266C20.1675 43.266 20.3625 43.2963 20.5402 43.357C20.7179 43.4177 20.8739 43.5043 21.0082 43.617C21.1469 43.7297 21.266 43.8662 21.3657 44.0265C21.4654 44.1868 21.5477 44.3667 21.6127 44.566C21.7124 44.3363 21.838 44.1392 21.9897 43.9745C22.1414 43.8098 22.3104 43.6755 22.4967 43.5715C22.683 43.4675 22.8802 43.3917 23.0882 43.344C23.3005 43.292 23.515 43.266 23.7317 43.266C24.087 43.266 24.4034 43.3223 24.6807 43.435C24.9624 43.5477 25.1985 43.7123 25.3892 43.929C25.5842 44.1413 25.7315 44.4035 25.8312 44.7155C25.9309 45.0275 25.9807 45.3828 25.9807 45.7815V50H24.5832V45.7815C24.5832 45.3135 24.4814 44.9625 24.2777 44.7285C24.0784 44.4902 23.7815 44.371 23.3872 44.371C23.2095 44.371 23.0427 44.4013 22.8867 44.462C22.7307 44.5227 22.5942 44.6115 22.4772 44.7285C22.3602 44.8455 22.267 44.9928 22.1977 45.1705C22.1327 45.3438 22.1002 45.5475 22.1002 45.7815V50H20.7027V45.7815C20.7027 45.2962 20.6052 44.9408 20.4102 44.7155C20.2152 44.4858 19.9292 44.371 19.5522 44.371C19.2922 44.371 19.0517 44.4382 18.8307 44.5725C18.6097 44.7025 18.406 44.8823 18.2197 45.112V50H16.8222ZM31.9617 45.9375C31.9617 45.7035 31.9271 45.4868 31.8577 45.2875C31.7927 45.0838 31.6952 44.9083 31.5652 44.761C31.4352 44.6093 31.2727 44.4923 31.0777 44.41C30.8871 44.3233 30.6661 44.28 30.4147 44.28C29.9077 44.28 29.5091 44.4252 29.2187 44.7155C28.9284 45.0058 28.7442 45.4132 28.6662 45.9375H31.9617ZM28.6272 46.7955C28.6446 47.1725 28.7031 47.4997 28.8027 47.777C28.9024 48.05 29.0346 48.2775 29.1992 48.4595C29.3682 48.6415 29.5676 48.778 29.7972 48.869C30.0312 48.9557 30.2912 48.999 30.5772 48.999C30.8502 48.999 31.0864 48.9687 31.2857 48.908C31.4851 48.843 31.6584 48.7737 31.8057 48.7C31.9531 48.622 32.0787 48.5527 32.1827 48.492C32.2867 48.427 32.3821 48.3945 32.4687 48.3945C32.5814 48.3945 32.6681 48.4378 32.7287 48.5245L33.1252 49.038C32.9606 49.233 32.7742 49.3977 32.5662 49.532C32.3582 49.6663 32.1372 49.7768 31.9032 49.8635C31.6692 49.9458 31.4287 50.0043 31.1817 50.039C30.9347 50.078 30.6942 50.0975 30.4602 50.0975C30.0009 50.0975 29.5741 50.0217 29.1797 49.87C28.7897 49.714 28.4496 49.4865 28.1592 49.1875C27.8732 48.8885 27.6479 48.518 27.4832 48.076C27.3229 47.634 27.2427 47.1248 27.2427 46.5485C27.2427 46.0892 27.3142 45.6602 27.4572 45.2615C27.6046 44.8628 27.8126 44.5162 28.0812 44.2215C28.3542 43.9268 28.6836 43.695 29.0692 43.526C29.4592 43.3527 29.8991 43.266 30.3887 43.266C30.7961 43.266 31.1731 43.3332 31.5197 43.4675C31.8664 43.5975 32.1654 43.7903 32.4167 44.046C32.6681 44.3017 32.8631 44.6158 33.0017 44.9885C33.1447 45.3568 33.2162 45.7772 33.2162 46.2495C33.2162 46.4662 33.1924 46.6113 33.1447 46.685C33.0971 46.7587 33.0104 46.7955 32.8847 46.7955H28.6272Z" fill="#4B4B4B" fill-opacity="0.4"/>
</svg>
