<svg width="39" height="50" viewBox="0 0 39 50" fill="none" xmlns="http://www.w3.org/2000/svg">
<path fill-rule="evenodd" clip-rule="evenodd" d="M20.3495 4.64475C20.1212 4.57827 19.8787 4.57827 19.6505 4.64475C19.5848 4.66389 19.4693 4.71176 19.2237 4.89773C18.9654 5.0933 18.6491 5.3732 18.1564 5.81121L11.6068 11.633C10.8039 12.3467 10.5763 12.562 10.418 12.8C10.2658 13.029 10.1524 13.2815 10.0824 13.5474C10.0096 13.8238 9.99997 14.1369 9.99997 15.2112V21.4625C9.99997 22.5513 10.001 23.2914 10.0485 23.8632C10.0947 24.42 10.1785 24.7042 10.2814 24.9024C10.5186 25.3591 10.8909 25.7314 11.3475 25.9685C11.5458 26.0715 11.83 26.1553 12.3868 26.2015C12.9585 26.249 13.6987 26.25 14.7875 26.25H15V22.5C15 19.7386 17.2385 17.5 20 17.5C22.7614 17.5 25 19.7386 25 22.5V26.25H25.2125C26.3012 26.25 27.0414 26.249 27.6132 26.2015C28.17 26.1553 28.4542 26.0715 28.6524 25.9685C29.109 25.7314 29.4813 25.3591 29.7185 24.9024C29.8215 24.7042 29.9052 24.42 29.9515 23.8632C29.999 23.2914 30 22.5513 30 21.4625V15.2112C30 14.1369 29.9903 13.8238 29.9176 13.5474C29.8476 13.2815 29.7341 13.029 29.5819 12.8C29.4237 12.562 29.1961 12.3467 28.3931 11.633L21.8436 5.81122C21.3508 5.3732 21.0346 5.0933 20.7763 4.89773C20.5306 4.71176 20.4152 4.66389 20.3495 4.64475ZM18.9514 2.24447C19.6362 2.04504 20.3637 2.04504 21.0485 2.24447C21.5237 2.38285 21.9177 2.6262 22.2853 2.90456C22.6316 3.1667 23.0215 3.51331 23.4705 3.91245L30.054 9.7645C30.0895 9.796 30.1245 9.82708 30.159 9.85775C30.8111 10.4368 31.3037 10.8742 31.6639 11.416C31.9683 11.874 32.1951 12.379 32.3352 12.9108C32.5008 13.54 32.5005 14.1988 32.5 15.0708C32.5 15.117 32.5 15.1638 32.5 15.2112V21.515C32.5 22.5382 32.5 23.3826 32.4429 24.0701C32.3836 24.7843 32.2563 25.4403 31.937 26.0549C31.4627 26.9681 30.7181 27.7127 29.8048 28.1871C29.1903 28.5063 28.5342 28.6336 27.8201 28.6929C27.1325 28.75 26.2881 28.75 25.2649 28.75H24.7562C24.7466 28.75 24.7368 28.75 24.7268 28.75C24.5754 28.7501 24.3946 28.7501 24.2354 28.7369C24.0508 28.7216 23.7865 28.6822 23.5106 28.5389C23.1682 28.361 22.889 28.0818 22.7111 27.7393C22.5678 27.4635 22.5284 27.1992 22.5131 27.0146C22.4998 26.8554 22.4999 26.6746 22.5 26.5232L22.5 22.5C22.5 21.1193 21.3807 20 20 20C18.6193 20 17.5 21.1193 17.5 22.5L17.5 26.5232C17.5 26.6746 17.5001 26.8554 17.4869 27.0146C17.4716 27.1992 17.4322 27.4634 17.2889 27.7393C17.111 28.0818 16.8318 28.361 16.4893 28.5389C16.2134 28.6822 15.9491 28.7216 15.7645 28.7369C15.6053 28.7501 15.4245 28.7501 15.2731 28.75C15.2632 28.75 15.2534 28.75 15.2437 28.75H14.735C13.7118 28.75 12.8674 28.75 12.1799 28.6929C11.4657 28.6336 10.8096 28.5063 10.1951 28.1871C9.28189 27.7127 8.53728 26.9681 8.06291 26.0549C7.74368 25.4403 7.61635 24.7843 7.55704 24.0701C7.49994 23.3826 7.49996 22.5382 7.49997 21.515L7.49997 15.2112C7.49997 15.1638 7.49995 15.117 7.49992 15.0708C7.49947 14.1988 7.49913 13.54 7.66478 12.9108C7.80482 12.379 8.03163 11.874 8.33608 11.416C8.69623 10.8742 9.18884 10.4368 9.84093 9.85776C9.87548 9.82708 9.91047 9.79601 9.94592 9.7645L16.5295 3.91246C16.9785 3.51332 17.3684 3.16671 17.7146 2.90456C18.0823 2.6262 18.4763 2.38285 18.9514 2.24447Z" fill="url(#paint0_linear_319_44)"/>
<path d="M8.19 36.965V46H6.708V42.048H2.457V46H0.975V36.965H2.457V40.839H6.708V36.965H8.19ZM13.248 46.117C12.572 46.117 11.961 45.9653 11.415 45.662C10.869 45.35 10.44 44.9167 10.128 44.362C9.81602 43.7987 9.66002 43.1487 9.66002 42.412C9.66002 41.684 9.82035 41.0383 10.141 40.475C10.4617 39.9117 10.8993 39.4783 11.454 39.175C12.0087 38.8717 12.6283 38.72 13.313 38.72C13.9977 38.72 14.6173 38.8717 15.172 39.175C15.7267 39.4783 16.1643 39.9117 16.485 40.475C16.8057 41.0383 16.966 41.684 16.966 42.412C16.966 43.14 16.8013 43.7857 16.472 44.349C16.1427 44.9123 15.692 45.35 15.12 45.662C14.5567 45.9653 13.9327 46.117 13.248 46.117ZM13.248 44.83C13.6293 44.83 13.9847 44.739 14.314 44.557C14.652 44.375 14.925 44.102 15.133 43.738C15.341 43.374 15.445 42.932 15.445 42.412C15.445 41.892 15.3453 41.4543 15.146 41.099C14.9467 40.735 14.6823 40.462 14.353 40.28C14.0237 40.098 13.6683 40.007 13.287 40.007C12.9057 40.007 12.5503 40.098 12.221 40.28C11.9003 40.462 11.6447 40.735 11.454 41.099C11.2633 41.4543 11.168 41.892 11.168 42.412C11.168 43.1833 11.363 43.7813 11.753 44.206C12.1517 44.622 12.65 44.83 13.248 44.83ZM27.1021 38.72C27.6654 38.72 28.1681 38.837 28.6101 39.071C29.0607 39.305 29.4117 39.6517 29.6631 40.111C29.9231 40.5703 30.0531 41.125 30.0531 41.775V46H28.5841V41.996C28.5841 41.3547 28.4237 40.865 28.1031 40.527C27.7824 40.1803 27.3447 40.007 26.7901 40.007C26.2354 40.007 25.7934 40.1803 25.4641 40.527C25.1434 40.865 24.9831 41.3547 24.9831 41.996V46H23.5141V41.996C23.5141 41.3547 23.3537 40.865 23.0331 40.527C22.7124 40.1803 22.2747 40.007 21.7201 40.007C21.1654 40.007 20.7234 40.1803 20.3941 40.527C20.0734 40.865 19.9131 41.3547 19.9131 41.996V46H18.4311V38.837H19.9131V39.656C20.1557 39.3613 20.4634 39.1317 20.8361 38.967C21.2087 38.8023 21.6074 38.72 22.0321 38.72C22.6041 38.72 23.1154 38.8413 23.5661 39.084C24.0167 39.3267 24.3634 39.6777 24.6061 40.137C24.8227 39.7037 25.1607 39.3613 25.6201 39.11C26.0794 38.85 26.5734 38.72 27.1021 38.72ZM38.5039 42.243C38.5039 42.5117 38.4865 42.7543 38.4519 42.971H32.9789C33.0222 43.543 33.2345 44.0023 33.6159 44.349C33.9972 44.6957 34.4652 44.869 35.0199 44.869C35.8172 44.869 36.3805 44.5353 36.7099 43.868H38.3089C38.0922 44.5267 37.6979 45.0683 37.1259 45.493C36.5625 45.909 35.8605 46.117 35.0199 46.117C34.3352 46.117 33.7199 45.9653 33.1739 45.662C32.6365 45.35 32.2119 44.9167 31.8999 44.362C31.5965 43.7987 31.4449 43.1487 31.4449 42.412C31.4449 41.6753 31.5922 41.0297 31.8869 40.475C32.1902 39.9117 32.6105 39.4783 33.1479 39.175C33.6939 38.8717 34.3179 38.72 35.0199 38.72C35.6959 38.72 36.2982 38.8673 36.8269 39.162C37.3555 39.4567 37.7672 39.8727 38.0619 40.41C38.3565 40.9387 38.5039 41.5497 38.5039 42.243ZM36.9569 41.775C36.9482 41.229 36.7532 40.7913 36.3719 40.462C35.9905 40.1327 35.5182 39.968 34.9549 39.968C34.4435 39.968 34.0059 40.1327 33.6419 40.462C33.2779 40.7827 33.0612 41.2203 32.9919 41.775H36.9569Z" fill="url(#paint1_linear_319_44)"/>
<defs>
<linearGradient id="paint0_linear_319_44" x1="20" y1="2.09489" x2="20" y2="28.75" gradientUnits="userSpaceOnUse">
<stop stop-color="#559163"/>
<stop offset="1" stop-color="#267467"/>
</linearGradient>
<linearGradient id="paint1_linear_319_44" x1="19.5" y1="33" x2="19.5" y2="50" gradientUnits="userSpaceOnUse">
<stop stop-color="#559163"/>
<stop offset="1" stop-color="#267467"/>
</linearGradient>
</defs>
</svg>
