<svg width="39" height="26" viewBox="0 0 39 26" fill="none" xmlns="http://www.w3.org/2000/svg">
<path d="M3.49587 26C2.53451 26 1.71123 25.7002 1.02604 25.1007C0.34085 24.5012 -0.00116232 23.7813 2.96763e-06 22.9412V3.05883C2.96763e-06 2.21765 0.342598 1.4973 1.02779 0.897767C1.71298 0.298238 2.53567 -0.00101701 3.49587 2.59663e-06H34.9587C35.92 2.59663e-06 36.7433 0.299767 37.4285 0.899296C38.1137 1.49883 38.4557 2.21867 38.4545 3.05883V22.9412C38.4545 23.7824 38.1119 24.5027 37.4268 25.1022C36.7416 25.7018 35.9189 26.001 34.9587 26H3.49587ZM3.49587 22.9412H34.9587V3.05883H3.49587V22.9412ZM12.2355 19.8824H26.219V18.3529H12.2355V19.8824ZM6.99174 15.2941H10.4876V12.2353H6.99174V15.2941ZM13.9835 15.2941H17.4793V12.2353H13.9835V15.2941ZM20.9752 15.2941H24.4711V12.2353H20.9752V15.2941ZM27.9669 15.2941H31.4628V12.2353H27.9669V15.2941ZM6.99174 9.17647H10.4876V6.11765H6.99174V9.17647ZM13.9835 9.17647H17.4793V6.11765H13.9835V9.17647ZM20.9752 9.17647H24.4711V6.11765H20.9752V9.17647ZM27.9669 9.17647H31.4628V6.11765H27.9669V9.17647Z" fill="#4B4B4B" fill-opacity="0.4"/>
</svg>
