<svg width="18" height="25" viewBox="0 0 18 25" fill="none" xmlns="http://www.w3.org/2000/svg">
<path d="M9.05688 15.7161C8.00778 15.7161 7.11604 15.3533 6.38166 14.6276C5.64729 13.9019 5.2801 13.0207 5.2801 11.984V4.51993C5.2801 3.48325 5.64729 2.60207 6.38166 1.87639C7.11604 1.15071 8.00778 0.787872 9.05688 0.787872C10.106 0.787872 10.9977 1.15071 11.7321 1.87639C12.4665 2.60207 12.8337 3.48325 12.8337 4.51993V11.984C12.8337 13.0207 12.4665 13.9019 11.7321 14.6276C10.9977 15.3533 10.106 15.7161 9.05688 15.7161ZM7.79796 24.4242V20.5989C5.61581 20.3086 3.81135 19.3445 2.38456 17.7065C0.957777 16.0686 0.244385 14.1611 0.244385 11.984H2.76224C2.76224 13.7049 3.37618 15.1716 4.60405 16.3841C5.83109 17.5975 7.31537 18.2041 9.05688 18.2041C10.7984 18.2041 12.2831 17.5975 13.511 16.3841C14.738 15.1716 15.3515 13.7049 15.3515 11.984H17.8694C17.8694 14.1611 17.156 16.0686 15.7292 17.7065C14.3024 19.3445 12.498 20.3086 10.3158 20.5989V24.4242H7.79796Z" fill="#4B4B4B" fill-opacity="0.4"/>
</svg>
