<svg width="38" height="54" viewBox="0 0 38 54" fill="none" xmlns="http://www.w3.org/2000/svg">
<path fill-rule="evenodd" clip-rule="evenodd" d="M24.4545 10.9091C24.4545 12.3557 23.8798 13.7431 22.8569 14.766C21.834 15.789 20.4466 16.3636 19 16.3636C17.5533 16.3636 16.1659 15.789 15.143 14.766C14.1201 13.7431 13.5454 12.3557 13.5454 10.9091C13.5454 9.46245 14.1201 8.07507 15.143 7.05214C16.1659 6.02922 17.5533 5.45454 19 5.45454C20.4466 5.45454 21.834 6.02922 22.8569 7.05214C23.8798 8.07507 24.4545 9.46245 24.4545 10.9091ZM21.7272 10.9091C21.7272 11.6324 21.4399 12.3261 20.9284 12.8376C20.417 13.349 19.7233 13.6364 19 13.6364C18.2766 13.6364 17.5829 13.349 17.0715 12.8376C16.56 12.3261 16.2727 11.6324 16.2727 10.9091C16.2727 10.1858 16.56 9.49208 17.0715 8.98062C17.5829 8.46915 18.2766 8.18182 19 8.18182C19.7233 8.18182 20.417 8.46915 20.9284 8.98062C21.4399 9.49208 21.7272 10.1858 21.7272 10.9091Z" fill="#4B4B4B" fill-opacity="0.4"/>
<path fill-rule="evenodd" clip-rule="evenodd" d="M19 0C10.7159 0 4 6.71591 4 15C4 23.2841 10.7159 30 19 30C27.2841 30 34 23.2841 34 15C34 6.71591 27.2841 0 19 0ZM6.72727 15C6.72727 17.85 7.69955 20.4736 9.32909 22.5573C10.4735 21.0544 11.9499 19.8365 13.6429 18.9986C15.3359 18.1607 17.1997 17.7256 19.0886 17.7273C20.9532 17.7255 22.7935 18.1494 24.4695 18.9665C26.1454 19.7837 27.6127 20.9726 28.7595 22.4427C29.9411 20.8931 30.7366 19.0844 31.0803 17.1663C31.424 15.2481 31.306 13.2757 30.7361 11.4123C30.1662 9.54877 29.1608 7.84779 27.8029 6.45005C26.4451 5.05231 24.774 3.99799 22.9278 3.37433C21.0816 2.75067 19.1135 2.5756 17.1862 2.8636C15.2589 3.1516 13.4279 3.8944 11.8447 5.03053C10.2615 6.16666 8.97156 7.66346 8.08168 9.39709C7.19179 11.1307 6.72752 13.0513 6.72727 15ZM19 27.2727C16.1827 27.277 13.4504 26.3077 11.2655 24.5291C12.1449 23.2701 13.3155 22.2422 14.6775 21.5328C16.0396 20.8233 17.5529 20.4535 19.0886 20.4545C20.6052 20.4533 22.1002 20.814 23.4494 21.5065C24.7987 22.199 25.9632 23.2034 26.8464 24.4364C24.6445 26.2728 21.8672 27.2768 19 27.2727Z" fill="#4B4B4B" fill-opacity="0.4"/>
<path d="M4.0235 46.411C4.3615 46.411 4.65833 46.3677 4.914 46.281C5.174 46.1943 5.3885 46.073 5.5575 45.917C5.73083 45.7567 5.86083 45.5638 5.9475 45.3385C6.03417 45.1132 6.0775 44.8618 6.0775 44.5845C6.0775 44.3115 6.03417 44.0667 5.9475 43.85C5.86517 43.6333 5.7395 43.4492 5.5705 43.2975C5.4015 43.1458 5.187 43.031 4.927 42.953C4.67133 42.8707 4.37017 42.8295 4.0235 42.8295H2.6325V46.411H4.0235ZM4.0235 41.64C4.6345 41.64 5.16317 41.7115 5.6095 41.8545C6.06017 41.9975 6.43067 42.199 6.721 42.459C7.01567 42.7147 7.2345 43.0245 7.3775 43.3885C7.5205 43.7482 7.592 44.1468 7.592 44.5845C7.592 45.0308 7.51617 45.4403 7.3645 45.813C7.21283 46.1813 6.9875 46.4998 6.6885 46.7685C6.3895 47.0328 6.01683 47.2408 5.5705 47.3925C5.1285 47.5398 4.61283 47.6135 4.0235 47.6135H2.6325V51H1.1115V41.64H4.0235ZM9.99131 45.5985C10.1993 45.1782 10.4506 44.8488 10.7453 44.6105C11.04 44.3678 11.3931 44.2465 11.8048 44.2465C11.9478 44.2465 12.0821 44.2638 12.2078 44.2985C12.3335 44.3288 12.4461 44.3765 12.5458 44.4415L12.4483 45.4945C12.431 45.5682 12.4028 45.6202 12.3638 45.6505C12.3291 45.6765 12.2815 45.6895 12.2208 45.6895C12.1558 45.6895 12.0626 45.6787 11.9413 45.657C11.82 45.631 11.6921 45.618 11.5578 45.618C11.3628 45.618 11.1895 45.6462 11.0378 45.7025C10.8905 45.7588 10.7561 45.8412 10.6348 45.9495C10.5178 46.0578 10.4138 46.19 10.3228 46.346C10.2318 46.502 10.1473 46.6797 10.0693 46.879V51H8.67181V44.37H9.48431C9.63165 44.37 9.73348 44.3982 9.78981 44.4545C9.84615 44.5065 9.88515 44.5997 9.90681 44.734L9.99131 45.5985ZM16.1086 44.266C16.5983 44.266 17.0403 44.3462 17.4346 44.5065C17.8333 44.6668 18.1713 44.8943 18.4486 45.189C18.7303 45.4837 18.947 45.8412 19.0986 46.2615C19.2503 46.6818 19.3261 47.1542 19.3261 47.6785C19.3261 48.2028 19.2503 48.6752 19.0986 49.0955C18.947 49.5158 18.7303 49.8755 18.4486 50.1745C18.1713 50.4692 17.8333 50.6967 17.4346 50.857C17.0403 51.0173 16.5983 51.0975 16.1086 51.0975C15.6146 51.0975 15.1683 51.0173 14.7696 50.857C14.3753 50.6967 14.0373 50.4692 13.7556 50.1745C13.474 49.8755 13.2573 49.5158 13.1056 49.0955C12.954 48.6752 12.8781 48.2028 12.8781 47.6785C12.8781 47.1542 12.954 46.6818 13.1056 46.2615C13.2573 45.8412 13.474 45.4837 13.7556 45.189C14.0373 44.8943 14.3753 44.6668 14.7696 44.5065C15.1683 44.3462 15.6146 44.266 16.1086 44.266ZM16.1086 50.0055C16.7066 50.0055 17.1508 49.8062 17.4411 49.4075C17.7358 49.0045 17.8831 48.4303 17.8831 47.685C17.8831 46.9397 17.7358 46.3655 17.4411 45.9625C17.1508 45.5552 16.7066 45.3515 16.1086 45.3515C15.502 45.3515 15.0513 45.5552 14.7566 45.9625C14.462 46.3655 14.3146 46.9397 14.3146 47.685C14.3146 48.4303 14.462 49.0045 14.7566 49.4075C15.0513 49.8062 15.502 50.0055 16.1086 50.0055ZM20.9715 51V45.4815L20.3215 45.3905C20.2132 45.3688 20.1244 45.3298 20.055 45.2735C19.99 45.2172 19.9575 45.137 19.9575 45.033V44.461H20.9715V44.1815C20.9715 43.7742 21.0365 43.3993 21.1665 43.057C21.2965 42.7147 21.4937 42.4178 21.758 42.1665C22.0224 41.9152 22.3517 41.7202 22.746 41.5815C23.1447 41.4385 23.6105 41.367 24.1435 41.367C24.3169 41.367 24.4945 41.3778 24.6765 41.3995C24.8629 41.4212 25.021 41.4537 25.151 41.497L25.1055 42.225C25.0969 42.316 25.0427 42.368 24.943 42.381C24.8434 42.3897 24.7112 42.394 24.5465 42.394C24.1435 42.394 23.8012 42.433 23.5195 42.511C23.2379 42.5847 23.0082 42.6995 22.8305 42.8555C22.6529 43.0072 22.5229 43.1978 22.4405 43.4275C22.3625 43.6528 22.3235 43.9172 22.3235 44.2205V44.461H26.386V51H24.9885V45.4685H22.369V51H20.9715ZM29.5826 41.38V51H28.1851V41.38H29.5826ZM35.6561 46.9375C35.6561 46.7035 35.6214 46.4868 35.5521 46.2875C35.4871 46.0838 35.3896 45.9083 35.2596 45.761C35.1296 45.6093 34.9671 45.4923 34.7721 45.41C34.5814 45.3233 34.3604 45.28 34.1091 45.28C33.6021 45.28 33.2034 45.4252 32.9131 45.7155C32.6227 46.0058 32.4386 46.4132 32.3606 46.9375H35.6561ZM32.3216 47.7955C32.3389 48.1725 32.3974 48.4997 32.4971 48.777C32.5967 49.05 32.7289 49.2775 32.8936 49.4595C33.0626 49.6415 33.2619 49.778 33.4916 49.869C33.7256 49.9557 33.9856 49.999 34.2716 49.999C34.5446 49.999 34.7807 49.9687 34.9801 49.908C35.1794 49.843 35.3527 49.7737 35.5001 49.7C35.6474 49.622 35.7731 49.5527 35.8771 49.492C35.9811 49.427 36.0764 49.3945 36.1631 49.3945C36.2757 49.3945 36.3624 49.4378 36.4231 49.5245L36.8196 50.038C36.6549 50.233 36.4686 50.3977 36.2606 50.532C36.0526 50.6663 35.8316 50.7768 35.5976 50.8635C35.3636 50.9458 35.1231 51.0043 34.8761 51.039C34.6291 51.078 34.3886 51.0975 34.1546 51.0975C33.6952 51.0975 33.2684 51.0217 32.8741 50.87C32.4841 50.714 32.1439 50.4865 31.8536 50.1875C31.5676 49.8885 31.3422 49.518 31.1776 49.076C31.0172 48.634 30.9371 48.1248 30.9371 47.5485C30.9371 47.0892 31.0086 46.6602 31.1516 46.2615C31.2989 45.8628 31.5069 45.5162 31.7756 45.2215C32.0486 44.9268 32.3779 44.695 32.7636 44.526C33.1536 44.3527 33.5934 44.266 34.0831 44.266C34.4904 44.266 34.8674 44.3332 35.2141 44.4675C35.5607 44.5975 35.8597 44.7903 36.1111 45.046C36.3624 45.3017 36.5574 45.6158 36.6961 45.9885C36.8391 46.3568 36.9106 46.7772 36.9106 47.2495C36.9106 47.4662 36.8867 47.6113 36.8391 47.685C36.7914 47.7587 36.7047 47.7955 36.5791 47.7955H32.3216Z" fill="#4B4B4B" fill-opacity="0.4"/>
</svg>
