<svg width="47" height="50" viewBox="0 0 47 50" fill="none" xmlns="http://www.w3.org/2000/svg">
<path d="M23 5C22.3096 5 21.75 5.55964 21.75 6.25C21.75 8.36532 19.1925 9.42468 17.6967 7.92892C17.2086 7.44076 16.4171 7.44076 15.929 7.92892C15.4408 8.41708 15.4408 9.20853 15.929 9.69669C17.4248 11.1925 16.3653 13.75 14.25 13.75C13.5596 13.75 13 14.3096 13 15C13 15.6904 13.5596 16.25 14.25 16.25C16.3654 16.25 17.4245 18.8076 15.9289 20.3033C15.4407 20.7915 15.4407 21.5829 15.9289 22.0711C16.417 22.5592 17.2085 22.5592 17.6966 22.0711C19.1924 20.5753 21.75 21.6346 21.75 23.75C21.75 24.4404 22.3096 25 23 25C23.6904 25 24.25 24.4404 24.25 23.75C24.25 21.6346 26.8076 20.5753 28.3033 22.0711C28.7915 22.5592 29.5829 22.5592 30.0711 22.0711C30.5593 21.5829 30.5593 20.7914 30.0711 20.3033C28.5754 18.8076 29.6346 16.25 31.75 16.25C32.4404 16.25 33 15.6904 33 15C33 14.3096 32.4404 13.75 31.75 13.75C29.6348 13.75 28.5752 11.1926 30.071 9.69671C30.5592 9.20855 30.5592 8.4171 30.071 7.92894C29.5829 7.44079 28.7914 7.44079 28.3033 7.92894C26.8075 9.42474 24.25 8.36524 24.25 6.25C24.25 5.55964 23.6904 5 23 5ZM19.2602 5.97128C19.4028 4.03038 21.0227 2.5 23 2.5C24.9773 2.5 26.5972 4.03038 26.7398 5.97129C28.2131 4.69971 30.4406 4.763 31.8388 6.16117C33.237 7.55935 33.3003 9.78693 32.0286 11.2602C33.9696 11.4028 35.5 13.0227 35.5 15C35.5 16.9773 33.9696 18.5972 32.0287 18.7398C33.3003 20.2131 33.237 22.4406 31.8389 23.8388C30.4407 25.237 28.2131 25.3003 26.7398 24.0286C26.5972 25.9696 24.9773 27.5 23 27.5C21.0227 27.5 19.4028 25.9696 19.2602 24.0286C17.7869 25.3003 15.5593 25.237 14.1611 23.8388C12.7629 22.4407 12.6996 20.2131 13.9713 18.7398C12.0304 18.5972 10.5 16.9773 10.5 15C10.5 13.0227 12.0304 11.4028 13.9714 11.2602C12.6997 9.78693 12.763 7.55934 14.1612 6.16115C15.5594 4.76298 17.7869 4.69969 19.2602 5.97128Z" fill="#4B4B4B" fill-opacity="0.4"/>
<path d="M23 12.5C22.337 12.5 21.7011 12.7634 21.2322 13.2322C20.7634 13.7011 20.5 14.337 20.5 15C20.5 15.663 20.7634 16.2989 21.2322 16.7678C21.7011 17.2366 22.337 17.5 23 17.5C23.663 17.5 24.2989 17.2366 24.7678 16.7678C25.2366 16.2989 25.5 15.663 25.5 15C25.5 14.337 25.2366 13.7011 24.7678 13.2322C24.2989 12.7634 23.663 12.5 23 12.5ZM19.4645 11.4645C20.4021 10.5268 21.6739 10 23 10C24.3261 10 25.5979 10.5268 26.5355 11.4645C27.4732 12.4021 28 13.6739 28 15C28 16.3261 27.4732 17.5979 26.5355 18.5355C25.5979 19.4732 24.3261 20 23 20C21.6739 20 20.4021 19.4732 19.4645 18.5355C18.5268 17.5979 18 16.3261 18 15C18 13.6739 18.5268 12.4021 19.4645 11.4645Z" fill="#4B4B4B" fill-opacity="0.4"/>
<path d="M6.0515 39.3105C5.9995 39.4015 5.94317 39.4687 5.8825 39.512C5.82617 39.551 5.75467 39.5705 5.668 39.5705C5.577 39.5705 5.47733 39.538 5.369 39.473C5.265 39.4037 5.13933 39.3278 4.992 39.2455C4.84467 39.1632 4.67133 39.0895 4.472 39.0245C4.277 38.9552 4.04517 38.9205 3.7765 38.9205C3.53383 38.9205 3.3215 38.9508 3.1395 39.0115C2.9575 39.0678 2.80367 39.148 2.678 39.252C2.55667 39.356 2.46567 39.4817 2.405 39.629C2.34433 39.772 2.314 39.9302 2.314 40.1035C2.314 40.3245 2.37467 40.5087 2.496 40.656C2.62167 40.8033 2.78633 40.929 2.99 41.033C3.19367 41.137 3.4255 41.2302 3.6855 41.3125C3.9455 41.3948 4.212 41.4837 4.485 41.579C4.758 41.67 5.0245 41.7783 5.2845 41.904C5.5445 42.0253 5.77633 42.1813 5.98 42.372C6.18367 42.5583 6.34617 42.788 6.4675 43.061C6.59317 43.334 6.656 43.6655 6.656 44.0555C6.656 44.4802 6.58233 44.8788 6.435 45.2515C6.292 45.6198 6.07967 45.9427 5.798 46.22C5.52067 46.493 5.1805 46.7097 4.7775 46.87C4.3745 47.026 3.913 47.104 3.393 47.104C3.094 47.104 2.79933 47.0737 2.509 47.013C2.21867 46.9567 1.93917 46.8743 1.6705 46.766C1.40617 46.6577 1.157 46.5277 0.923 46.376C0.689 46.2243 0.481 46.0553 0.299 45.869L0.8125 45.0305C0.855833 44.9698 0.912167 44.92 0.9815 44.881C1.05083 44.8377 1.1245 44.816 1.2025 44.816C1.31083 44.816 1.42783 44.8615 1.5535 44.9525C1.67917 45.0392 1.82867 45.1367 2.002 45.245C2.17533 45.3533 2.37683 45.453 2.6065 45.544C2.8405 45.6307 3.12 45.674 3.445 45.674C3.94333 45.674 4.329 45.557 4.602 45.323C4.875 45.0847 5.0115 44.7445 5.0115 44.3025C5.0115 44.0555 4.94867 43.854 4.823 43.698C4.70167 43.542 4.53917 43.412 4.3355 43.308C4.13183 43.1997 3.9 43.1087 3.64 43.035C3.38 42.9613 3.11567 42.8812 2.847 42.7945C2.57833 42.7078 2.314 42.6038 2.054 42.4825C1.794 42.3612 1.56217 42.203 1.3585 42.008C1.15483 41.813 0.990167 41.5703 0.8645 41.28C0.743167 40.9853 0.6825 40.6235 0.6825 40.1945C0.6825 39.8522 0.749667 39.5185 0.884 39.1935C1.02267 38.8685 1.222 38.5803 1.482 38.329C1.742 38.0777 2.06267 37.8762 2.444 37.7245C2.82533 37.5728 3.263 37.497 3.757 37.497C4.31167 37.497 4.823 37.5837 5.291 37.757C5.759 37.9303 6.15767 38.173 6.487 38.485L6.0515 39.3105ZM12.1989 42.8985C12.1989 42.6905 12.1685 42.4955 12.1079 42.3135C12.0515 42.1272 11.9649 41.9647 11.8479 41.826C11.7309 41.6873 11.5814 41.579 11.3994 41.501C11.2217 41.4187 11.0137 41.3775 10.7754 41.3775C10.3117 41.3775 9.94554 41.5097 9.67688 41.774C9.41254 42.0383 9.24354 42.4132 9.16988 42.8985H12.1989ZM9.13738 43.867C9.16338 44.2093 9.22404 44.5062 9.31938 44.7575C9.41471 45.0045 9.54038 45.2103 9.69638 45.375C9.85238 45.5353 10.0365 45.6567 10.2489 45.739C10.4655 45.817 10.7039 45.856 10.9639 45.856C11.2239 45.856 11.447 45.8257 11.6334 45.765C11.824 45.7043 11.9887 45.6372 12.1274 45.5635C12.2704 45.4898 12.3939 45.4227 12.4979 45.362C12.6062 45.3013 12.7102 45.271 12.8099 45.271C12.9442 45.271 13.0439 45.3208 13.1089 45.4205L13.5704 46.0055C13.3927 46.2135 13.1934 46.389 12.9724 46.532C12.7514 46.6707 12.5195 46.7833 12.2769 46.87C12.0385 46.9523 11.7937 47.0108 11.5424 47.0455C11.2954 47.0802 11.0549 47.0975 10.8209 47.0975C10.3572 47.0975 9.92604 47.0217 9.52738 46.87C9.12871 46.714 8.78204 46.4865 8.48738 46.1875C8.19271 45.8842 7.96088 45.5115 7.79188 45.0695C7.62288 44.6232 7.53837 44.1075 7.53837 43.5225C7.53837 43.0675 7.61204 42.6407 7.75938 42.242C7.90671 41.839 8.11688 41.4902 8.38988 41.1955C8.66721 40.8965 9.00304 40.6603 9.39738 40.487C9.79604 40.3137 10.2445 40.227 10.7429 40.227C11.1632 40.227 11.551 40.2942 11.9064 40.4285C12.2617 40.5628 12.5672 40.76 12.8229 41.02C13.0785 41.2757 13.2779 41.592 13.4209 41.969C13.5682 42.3417 13.6419 42.7685 13.6419 43.2495C13.6419 43.4922 13.6159 43.6568 13.5639 43.7435C13.5119 43.8258 13.4122 43.867 13.2649 43.867H9.13738ZM25.6837 47H24.0782V41.5335H21.1142V45.1475C21.1142 45.3555 21.1662 45.518 21.2702 45.635C21.3742 45.752 21.5151 45.8105 21.6927 45.8105C21.7881 45.8105 21.8704 45.7997 21.9397 45.778C22.0091 45.752 22.0676 45.726 22.1152 45.7C22.1672 45.674 22.2127 45.6502 22.2517 45.6285C22.2907 45.6025 22.3297 45.5895 22.3687 45.5895C22.4164 45.5895 22.4554 45.6025 22.4857 45.6285C22.5161 45.6502 22.5486 45.6848 22.5832 45.7325L23.0642 46.5125C22.8302 46.7075 22.5616 46.8548 22.2582 46.9545C21.9549 47.0542 21.6407 47.104 21.3157 47.104C20.7351 47.104 20.2887 46.9415 19.9767 46.6165C19.6647 46.2872 19.5087 45.8343 19.5087 45.258V41.5335H16.8112V45.1475C16.8112 45.3555 16.8611 45.518 16.9607 45.635C17.0647 45.752 17.2056 45.8105 17.3832 45.8105C17.4829 45.8105 17.5652 45.7997 17.6302 45.778C17.6996 45.752 17.7581 45.726 17.8057 45.7C17.8577 45.674 17.9032 45.6502 17.9422 45.6285C17.9812 45.6025 18.0202 45.5895 18.0592 45.5895C18.1069 45.5895 18.1459 45.6025 18.1762 45.6285C18.2066 45.6502 18.2391 45.6848 18.2737 45.7325L18.7547 46.5125C18.5207 46.7075 18.2521 46.8548 17.9487 46.9545C17.6454 47.0542 17.3312 47.104 17.0062 47.104C16.4256 47.104 15.9792 46.9415 15.6672 46.6165C15.3596 46.2872 15.2057 45.8343 15.2057 45.258V41.5335H14.5232C14.4366 41.5335 14.3629 41.5053 14.3022 41.449C14.2416 41.3927 14.2112 41.3082 14.2112 41.1955V40.5585L15.2837 40.3765L15.6217 38.563C15.6434 38.4763 15.6846 38.4092 15.7452 38.3615C15.8059 38.3138 15.8839 38.29 15.9792 38.29H16.8112V40.3895H19.5867L19.9312 38.563C19.9529 38.4763 19.9919 38.4092 20.0482 38.3615C20.1089 38.3138 20.1891 38.29 20.2887 38.29H21.1142V40.3895H25.6837V47ZM25.9372 38.3615C25.9372 38.5002 25.9091 38.6323 25.8527 38.758C25.7964 38.8793 25.7206 38.9855 25.6252 39.0765C25.5342 39.1675 25.4237 39.2412 25.2937 39.2975C25.1681 39.3495 25.0337 39.3755 24.8907 39.3755C24.7521 39.3755 24.6221 39.3495 24.5007 39.2975C24.3794 39.2412 24.2732 39.1675 24.1822 39.0765C24.0912 38.9855 24.0176 38.8793 23.9612 38.758C23.9092 38.6323 23.8832 38.5002 23.8832 38.3615C23.8832 38.2185 23.9092 38.0863 23.9612 37.965C24.0176 37.8393 24.0912 37.731 24.1822 37.64C24.2732 37.5447 24.3794 37.471 24.5007 37.419C24.6221 37.3627 24.7521 37.3345 24.8907 37.3345C25.0337 37.3345 25.1681 37.3627 25.2937 37.419C25.4237 37.471 25.5342 37.5447 25.6252 37.64C25.7206 37.731 25.7964 37.8393 25.8527 37.965C25.9091 38.0863 25.9372 38.2185 25.9372 38.3615ZM28.8277 41.15C28.962 41.0157 29.1029 40.8922 29.2502 40.7795C29.4019 40.6625 29.56 40.565 29.7247 40.487C29.8937 40.4047 30.0735 40.3418 30.2642 40.2985C30.4549 40.2508 30.6629 40.227 30.8882 40.227C31.2522 40.227 31.575 40.2898 31.8567 40.4155C32.1384 40.5368 32.3724 40.7102 32.5587 40.9355C32.7494 41.1565 32.8924 41.423 32.9877 41.735C33.0874 42.0427 33.1372 42.3828 33.1372 42.7555V47H31.5317V42.7555C31.5317 42.3482 31.4385 42.034 31.2522 41.813C31.0659 41.5877 30.782 41.475 30.4007 41.475C30.1234 41.475 29.8634 41.5378 29.6207 41.6635C29.378 41.7892 29.1484 41.9603 28.9317 42.177V47H27.3262V40.331H28.3077C28.5157 40.331 28.6522 40.4285 28.7172 40.6235L28.8277 41.15ZM37.1016 43.503C37.3009 43.503 37.4743 43.477 37.6216 43.425C37.7689 43.3687 37.8903 43.2928 37.9856 43.1975C38.0853 43.1022 38.1589 42.9873 38.2066 42.853C38.2586 42.7187 38.2846 42.5713 38.2846 42.411C38.2846 42.0817 38.1849 41.8217 37.9856 41.631C37.7906 41.436 37.4959 41.3385 37.1016 41.3385C36.7073 41.3385 36.4104 41.436 36.2111 41.631C36.0161 41.8217 35.9186 42.0817 35.9186 42.411C35.9186 42.567 35.9424 42.7122 35.9901 42.8465C36.0421 42.9808 36.1158 43.0978 36.2111 43.1975C36.3108 43.2928 36.4343 43.3687 36.5816 43.425C36.7333 43.477 36.9066 43.503 37.1016 43.503ZM38.9151 47.299C38.9151 47.169 38.8761 47.0628 38.7981 46.9805C38.7201 46.8982 38.6139 46.8353 38.4796 46.792C38.3453 46.7443 38.1871 46.7097 38.0051 46.688C37.8274 46.6663 37.6368 46.6512 37.4331 46.6425C37.2338 46.6295 37.0258 46.6187 36.8091 46.61C36.5968 46.6013 36.3888 46.584 36.1851 46.558C36.0074 46.6577 35.8623 46.7747 35.7496 46.909C35.6413 47.0433 35.5871 47.1993 35.5871 47.377C35.5871 47.494 35.6153 47.6023 35.6716 47.702C35.7323 47.806 35.8254 47.8948 35.9511 47.9685C36.0811 48.0422 36.2479 48.0985 36.4516 48.1375C36.6553 48.1808 36.9044 48.2025 37.1991 48.2025C37.4981 48.2025 37.7559 48.1787 37.9726 48.131C38.1893 48.0877 38.3669 48.0248 38.5056 47.9425C38.6486 47.8645 38.7526 47.7692 38.8176 47.6565C38.8826 47.5482 38.9151 47.429 38.9151 47.299ZM40.5141 40.5585V41.1565C40.5141 41.3472 40.3993 41.4642 40.1696 41.5075L39.5716 41.618C39.6626 41.8477 39.7081 42.099 39.7081 42.372C39.7081 42.7013 39.6409 43.0003 39.5066 43.269C39.3766 43.5333 39.1946 43.7587 38.9606 43.945C38.7266 44.1313 38.4493 44.2765 38.1286 44.3805C37.8123 44.4802 37.4699 44.53 37.1016 44.53C36.9716 44.53 36.8459 44.5235 36.7246 44.5105C36.6033 44.4975 36.4841 44.4802 36.3671 44.4585C36.1591 44.5842 36.0551 44.725 36.0551 44.881C36.0551 45.0153 36.1158 45.115 36.2371 45.18C36.3628 45.2407 36.5274 45.284 36.7311 45.31C36.9348 45.336 37.1666 45.3533 37.4266 45.362C37.6866 45.3663 37.9531 45.3793 38.2261 45.401C38.4991 45.4227 38.7656 45.4617 39.0256 45.518C39.2856 45.57 39.5174 45.6545 39.7211 45.7715C39.9248 45.8885 40.0873 46.0488 40.2086 46.2525C40.3343 46.4518 40.3971 46.7097 40.3971 47.026C40.3971 47.3207 40.3234 47.6067 40.1761 47.884C40.0331 48.1613 39.8229 48.4083 39.5456 48.625C39.2726 48.8417 38.9346 49.015 38.5316 49.145C38.1329 49.2793 37.6779 49.3465 37.1666 49.3465C36.6639 49.3465 36.2263 49.2967 35.8536 49.197C35.4809 49.1017 35.1711 48.9717 34.9241 48.807C34.6771 48.6467 34.4929 48.4603 34.3716 48.248C34.2503 48.0357 34.1896 47.8147 34.1896 47.585C34.1896 47.273 34.2828 47.013 34.4691 46.805C34.6598 46.5927 34.9198 46.4237 35.2491 46.298C35.0714 46.207 34.9306 46.0857 34.8266 45.934C34.7226 45.7823 34.6706 45.583 34.6706 45.336C34.6706 45.2363 34.6879 45.1345 34.7226 45.0305C34.7616 44.9222 34.8158 44.816 34.8851 44.712C34.9588 44.608 35.0498 44.5105 35.1581 44.4195C35.2664 44.3242 35.3943 44.2397 35.5416 44.166C35.2036 43.984 34.9371 43.7413 34.7421 43.438C34.5514 43.1347 34.4561 42.7793 34.4561 42.372C34.4561 42.0427 34.5211 41.7458 34.6511 41.4815C34.7854 41.2128 34.9696 40.9853 35.2036 40.799C35.4419 40.6083 35.7214 40.4632 36.0421 40.3635C36.3671 40.2638 36.7203 40.214 37.1016 40.214C37.3876 40.214 37.6563 40.2443 37.9076 40.305C38.1589 40.3613 38.3886 40.4458 38.5966 40.5585H40.5141ZM45.6013 41.631C45.5579 41.7003 45.5124 41.7502 45.4648 41.7805C45.4171 41.8065 45.3564 41.8195 45.2828 41.8195C45.2048 41.8195 45.1203 41.7978 45.0293 41.7545C44.9426 41.7112 44.8408 41.6635 44.7238 41.6115C44.6068 41.5552 44.4724 41.5053 44.3208 41.462C44.1734 41.4187 43.9979 41.397 43.7943 41.397C43.4779 41.397 43.2288 41.4642 43.0468 41.5985C42.8691 41.7328 42.7803 41.9083 42.7803 42.125C42.7803 42.268 42.8258 42.3893 42.9168 42.489C43.0121 42.5843 43.1356 42.6688 43.2873 42.7425C43.4433 42.8162 43.6188 42.8833 43.8138 42.944C44.0088 43.0003 44.2059 43.0632 44.4053 43.1325C44.6089 43.2018 44.8083 43.282 45.0033 43.373C45.1983 43.4597 45.3716 43.5723 45.5233 43.711C45.6793 43.8453 45.8028 44.0078 45.8938 44.1985C45.9891 44.3892 46.0368 44.6188 46.0368 44.8875C46.0368 45.2082 45.9783 45.505 45.8613 45.778C45.7486 46.0467 45.5796 46.2807 45.3543 46.48C45.1289 46.675 44.8494 46.8288 44.5158 46.9415C44.1864 47.0498 43.8051 47.104 43.3718 47.104C43.1421 47.104 42.9168 47.0823 42.6958 47.039C42.4791 47 42.2689 46.9437 42.0653 46.87C41.8659 46.7963 41.6796 46.7097 41.5063 46.61C41.3373 46.5103 41.1878 46.402 41.0578 46.285L41.4283 45.674C41.4759 45.6003 41.5323 45.544 41.5973 45.505C41.6623 45.466 41.7446 45.4465 41.8443 45.4465C41.9439 45.4465 42.0371 45.4747 42.1238 45.531C42.2148 45.5873 42.3188 45.648 42.4358 45.713C42.5528 45.778 42.6893 45.8387 42.8453 45.895C43.0056 45.9513 43.2071 45.9795 43.4498 45.9795C43.6404 45.9795 43.8029 45.9578 43.9373 45.9145C44.0759 45.8668 44.1886 45.8062 44.2753 45.7325C44.3663 45.6588 44.4313 45.5743 44.4703 45.479C44.5136 45.3793 44.5353 45.2775 44.5353 45.1735C44.5353 45.0175 44.4876 44.8897 44.3923 44.79C44.3013 44.6903 44.1778 44.6037 44.0218 44.53C43.8701 44.4563 43.6946 44.3913 43.4953 44.335C43.3003 44.2743 43.0988 44.2093 42.8908 44.14C42.6871 44.0707 42.4856 43.9905 42.2863 43.8995C42.0913 43.8042 41.9158 43.685 41.7598 43.542C41.6081 43.399 41.4846 43.2235 41.3893 43.0155C41.2983 42.8075 41.2528 42.5562 41.2528 42.2615C41.2528 41.9885 41.3069 41.7285 41.4153 41.4815C41.5236 41.2345 41.6818 41.02 41.8898 40.838C42.1021 40.6517 42.3643 40.5043 42.6763 40.396C42.9926 40.2833 43.3566 40.227 43.7683 40.227C44.2276 40.227 44.6458 40.3028 45.0228 40.4545C45.3998 40.6062 45.7139 40.8055 45.9653 41.0525L45.6013 41.631Z" fill="#4B4B4B" fill-opacity="0.4"/>
</svg>
