<svg width="52" height="50" viewBox="0 0 52 50" fill="none" xmlns="http://www.w3.org/2000/svg">
<path d="M26.5 30L25.25 25.5H16.5C15.8125 25.5 15.2242 25.2065 14.735 24.6195C14.245 24.0315 14 23.325 14 22.5V3C14 2.175 14.245 1.4685 14.735 0.8805C15.2242 0.2935 15.8125 0 16.5 0H24L25.0938 4.5H36.5C37.2292 4.5 37.8283 4.781 38.2975 5.343C38.7658 5.906 39 6.625 39 7.5V27C39 27.825 38.7658 28.5315 38.2975 29.1195C37.8283 29.7065 37.2292 30 36.5 30H26.5ZM20.4375 18.9C21.875 18.9 23.0575 18.344 23.985 17.232C24.9117 16.119 25.375 14.675 25.375 12.9C25.375 12.7 25.37 12.5185 25.36 12.3555C25.3492 12.1935 25.3229 12.025 25.2812 11.85H20.3438V14.175H23.125C22.9583 14.875 22.6404 15.4185 22.1712 15.8055C21.7029 16.1935 21.1354 16.3875 20.4688 16.3875C19.6563 16.3875 18.9583 16.0375 18.375 15.3375C17.7917 14.6375 17.5 13.775 17.5 12.75C17.5 11.725 17.7917 10.8625 18.375 10.1625C18.9583 9.4625 19.6563 9.1125 20.4688 9.1125C20.8438 9.1125 21.1979 9.1935 21.5312 9.3555C21.8646 9.5185 22.1667 9.7625 22.4375 10.0875L23.9688 8.325C23.5313 7.775 23.0054 7.35 22.3913 7.05C21.7763 6.75 21.125 6.6 20.4375 6.6C19.0417 6.6 17.8492 7.1935 16.86 8.3805C15.87 9.5685 15.375 11.025 15.375 12.75C15.375 14.475 15.87 15.931 16.86 17.118C17.8492 18.306 19.0417 18.9 20.4375 18.9ZM28.8125 19.65L29.5 18.8625C29.2083 18.4375 28.9429 18.025 28.7037 17.625C28.4637 17.225 28.2292 16.8 28 16.35L28.8125 19.65ZM30.375 17.7375C30.9583 16.9125 31.4013 16.125 31.7038 15.375C32.0054 14.625 32.2083 14.0375 32.3125 13.6125H27.3438L27.7188 15.1875H28.9688C29.1354 15.5625 29.3333 15.969 29.5625 16.407C29.7917 16.844 30.0625 17.2875 30.375 17.7375ZM27.75 28.5H36.5C36.875 28.5 37.1771 28.356 37.4062 28.068C37.6354 27.781 37.75 27.425 37.75 27V7.5C37.75 7.05 37.6354 6.6875 37.4062 6.4125C37.1771 6.1375 36.875 6 36.5 6H25.4688L26.9375 12.075H29.4062V10.5H30.6875V12.075H35.25V13.6125H33.6562C33.4479 14.5625 33.1354 15.4875 32.7188 16.3875C32.3021 17.2875 31.8125 18.125 31.25 18.9L34.6562 22.9125L33.75 24L30.375 19.95L29.25 21.3375L30.25 25.5L27.75 28.5Z" fill="#4B4B4B" fill-opacity="0.4"/>
<path d="M7.553 38.9075H4.6345V47H3.12V38.9075H0.195V37.64H7.553V38.9075ZM8.54405 41.5985C8.75205 41.1782 9.00338 40.8488 9.29805 40.6105C9.59271 40.3678 9.94588 40.2465 10.3575 40.2465C10.5005 40.2465 10.6349 40.2638 10.7605 40.2985C10.8862 40.3288 10.9989 40.3765 11.0985 40.4415L11.001 41.4945C10.9837 41.5682 10.9555 41.6202 10.9165 41.6505C10.8819 41.6765 10.8342 41.6895 10.7735 41.6895C10.7085 41.6895 10.6154 41.6787 10.494 41.657C10.3727 41.631 10.2449 41.618 10.1105 41.618C9.91555 41.618 9.74221 41.6462 9.59055 41.7025C9.44321 41.7588 9.30888 41.8412 9.18755 41.9495C9.07055 42.0578 8.96655 42.19 8.87555 42.346C8.78455 42.502 8.70005 42.6797 8.62205 42.879V47H7.22455V40.37H8.03705C8.18438 40.37 8.28621 40.3982 8.34255 40.4545C8.39888 40.5065 8.43788 40.5997 8.45955 40.734L8.54405 41.5985ZM15.4643 44.101C14.966 44.1183 14.5456 44.1595 14.2033 44.2245C13.861 44.2852 13.5836 44.3653 13.3713 44.465C13.159 44.5603 13.0051 44.6752 12.9098 44.8095C12.8188 44.9438 12.7733 45.0912 12.7733 45.2515C12.7733 45.4075 12.7971 45.5418 12.8448 45.6545C12.8968 45.7628 12.9661 45.8538 13.0528 45.9275C13.1438 45.9968 13.2478 46.0488 13.3648 46.0835C13.4861 46.1138 13.6183 46.129 13.7613 46.129C14.1253 46.129 14.4373 46.0618 14.6973 45.9275C14.9616 45.7888 15.2173 45.5895 15.4643 45.3295V44.101ZM11.7593 41.293C12.509 40.5953 13.4016 40.2465 14.4373 40.2465C14.8186 40.2465 15.1566 40.3093 15.4513 40.435C15.7503 40.5563 15.9995 40.7297 16.1988 40.955C16.4025 41.1803 16.5563 41.449 16.6603 41.761C16.7686 42.0687 16.8228 42.411 16.8228 42.788V47H16.1988C16.0645 47 15.9626 46.9805 15.8933 46.9415C15.824 46.8982 15.7655 46.8137 15.7178 46.688L15.5813 46.1485C15.4123 46.3002 15.2455 46.4367 15.0808 46.558C14.9161 46.675 14.745 46.7747 14.5673 46.857C14.394 46.9393 14.2055 47 14.0018 47.039C13.8025 47.0823 13.5815 47.104 13.3388 47.104C13.0701 47.104 12.8188 47.0672 12.5848 46.9935C12.3551 46.9198 12.1558 46.8093 11.9868 46.662C11.8178 46.5103 11.6835 46.324 11.5838 46.103C11.4885 45.882 11.4408 45.622 11.4408 45.323C11.4408 45.0673 11.508 44.8182 11.6423 44.5755C11.781 44.3328 12.0063 44.1162 12.3183 43.9255C12.6346 43.7305 13.0485 43.5702 13.5598 43.4445C14.0755 43.3188 14.7103 43.2473 15.4643 43.23V42.788C15.4643 42.3113 15.3625 41.956 15.1588 41.722C14.9551 41.488 14.6561 41.371 14.2618 41.371C13.9931 41.371 13.7678 41.4057 13.5858 41.475C13.4038 41.54 13.2456 41.6115 13.1113 41.6895C12.977 41.7675 12.8578 41.8412 12.7538 41.9105C12.6498 41.9755 12.5393 42.008 12.4223 42.008C12.327 42.008 12.2446 41.9842 12.1753 41.9365C12.1103 41.8845 12.0561 41.8217 12.0128 41.748L11.7593 41.293ZM19.7664 41.2475C19.9094 41.1002 20.0567 40.968 20.2084 40.851C20.3644 40.7297 20.5291 40.6257 20.7024 40.539C20.8757 40.4523 21.0599 40.3852 21.2549 40.3375C21.4499 40.2898 21.6622 40.266 21.8919 40.266C22.2559 40.266 22.5744 40.3267 22.8474 40.448C23.1247 40.5693 23.3566 40.7405 23.5429 40.9615C23.7336 41.1825 23.8766 41.449 23.9719 41.761C24.0672 42.0687 24.1149 42.4088 24.1149 42.7815V47H22.7239V42.7815C22.7239 42.3352 22.6199 41.9885 22.4119 41.7415C22.2082 41.4945 21.8962 41.371 21.4759 41.371C21.1639 41.371 20.8736 41.4425 20.6049 41.5855C20.3406 41.7285 20.0914 41.9235 19.8574 42.1705V47H18.4599V40.37H19.3049C19.4956 40.37 19.6169 40.4588 19.6689 40.6365L19.7664 41.2475ZM29.7055 41.5725C29.6708 41.6332 29.6318 41.6765 29.5885 41.7025C29.5452 41.7285 29.491 41.7415 29.426 41.7415C29.3523 41.7415 29.2722 41.7198 29.1855 41.6765C29.0988 41.6288 28.997 41.5768 28.88 41.5205C28.763 41.4642 28.6243 41.4143 28.464 41.371C28.308 41.3233 28.1238 41.2995 27.9115 41.2995C27.7382 41.2995 27.58 41.3212 27.437 41.3645C27.2983 41.4035 27.1792 41.462 27.0795 41.54C26.9842 41.6137 26.9105 41.7025 26.8585 41.8065C26.8065 41.9062 26.7805 42.0145 26.7805 42.1315C26.7805 42.2875 26.8282 42.4175 26.9235 42.5215C27.0188 42.6255 27.1445 42.7165 27.3005 42.7945C27.4565 42.8682 27.6342 42.9353 27.8335 42.996C28.0328 43.0567 28.2365 43.1217 28.4445 43.191C28.6525 43.2603 28.8562 43.3405 29.0555 43.4315C29.2548 43.5225 29.4325 43.6352 29.5885 43.7695C29.7445 43.8995 29.8702 44.0598 29.9655 44.2505C30.0608 44.4368 30.1085 44.6643 30.1085 44.933C30.1085 45.245 30.0522 45.5332 29.9395 45.7975C29.8268 46.0618 29.6622 46.2915 29.4455 46.4865C29.2288 46.6815 28.958 46.8332 28.633 46.9415C28.3123 47.0498 27.944 47.104 27.528 47.104C27.2983 47.104 27.0752 47.0823 26.8585 47.039C26.6462 47 26.4425 46.9458 26.2475 46.8765C26.0568 46.8028 25.877 46.7162 25.708 46.6165C25.5433 46.5168 25.396 46.4085 25.266 46.2915L25.591 45.7585C25.63 45.6935 25.6777 45.6437 25.734 45.609C25.7947 45.57 25.8683 45.5505 25.955 45.5505C26.046 45.5505 26.1348 45.5808 26.2215 45.6415C26.3125 45.6978 26.4165 45.7607 26.5335 45.83C26.6548 45.8993 26.8 45.9643 26.969 46.025C27.138 46.0813 27.3482 46.1095 27.5995 46.1095C27.8075 46.1095 27.9873 46.0857 28.139 46.038C28.2907 45.986 28.4163 45.9167 28.516 45.83C28.6157 45.7433 28.6893 45.6458 28.737 45.5375C28.7847 45.4248 28.8085 45.3057 28.8085 45.18C28.8085 45.011 28.7608 44.8723 28.6655 44.764C28.5702 44.6557 28.4423 44.5625 28.282 44.4845C28.126 44.4065 27.9462 44.3372 27.7425 44.2765C27.5432 44.2158 27.3395 44.1508 27.1315 44.0815C26.9235 44.0122 26.7177 43.932 26.514 43.841C26.3147 43.75 26.1348 43.6352 25.9745 43.4965C25.8185 43.3535 25.6928 43.1823 25.5975 42.983C25.5022 42.7793 25.4545 42.5323 25.4545 42.242C25.4545 41.9777 25.5065 41.7263 25.6105 41.488C25.7188 41.2497 25.8748 41.0395 26.0785 40.8575C26.2865 40.6755 26.54 40.5325 26.839 40.4285C27.1423 40.3202 27.4912 40.266 27.8855 40.266C28.3318 40.266 28.737 40.3375 29.101 40.4805C29.465 40.6235 29.7705 40.8185 30.0175 41.0655L29.7055 41.5725ZM32.8453 37.38V47H31.4478V37.38H32.8453ZM38.1128 44.101C37.6144 44.1183 37.1941 44.1595 36.8518 44.2245C36.5094 44.2852 36.2321 44.3653 36.0198 44.465C35.8074 44.5603 35.6536 44.6752 35.5583 44.8095C35.4673 44.9438 35.4218 45.0912 35.4218 45.2515C35.4218 45.4075 35.4456 45.5418 35.4933 45.6545C35.5453 45.7628 35.6146 45.8538 35.7013 45.9275C35.7923 45.9968 35.8963 46.0488 36.0133 46.0835C36.1346 46.1138 36.2668 46.129 36.4098 46.129C36.7738 46.129 37.0858 46.0618 37.3458 45.9275C37.6101 45.7888 37.8658 45.5895 38.1128 45.3295V44.101ZM34.4078 41.293C35.1574 40.5953 36.0501 40.2465 37.0858 40.2465C37.4671 40.2465 37.8051 40.3093 38.0998 40.435C38.3988 40.5563 38.6479 40.7297 38.8473 40.955C39.0509 41.1803 39.2048 41.449 39.3088 41.761C39.4171 42.0687 39.4713 42.411 39.4713 42.788V47H38.8473C38.7129 47 38.6111 46.9805 38.5418 46.9415C38.4724 46.8982 38.4139 46.8137 38.3663 46.688L38.2298 46.1485C38.0608 46.3002 37.8939 46.4367 37.7293 46.558C37.5646 46.675 37.3934 46.7747 37.2158 46.857C37.0424 46.9393 36.8539 47 36.6503 47.039C36.4509 47.0823 36.2299 47.104 35.9873 47.104C35.7186 47.104 35.4673 47.0672 35.2333 46.9935C35.0036 46.9198 34.8043 46.8093 34.6353 46.662C34.4663 46.5103 34.3319 46.324 34.2323 46.103C34.1369 45.882 34.0893 45.622 34.0893 45.323C34.0893 45.0673 34.1564 44.8182 34.2908 44.5755C34.4294 44.3328 34.6548 44.1162 34.9668 43.9255C35.2831 43.7305 35.6969 43.5702 36.2083 43.4445C36.7239 43.3188 37.3588 43.2473 38.1128 43.23V42.788C38.1128 42.3113 38.0109 41.956 37.8073 41.722C37.6036 41.488 37.3046 41.371 36.9103 41.371C36.6416 41.371 36.4163 41.4057 36.2343 41.475C36.0523 41.54 35.8941 41.6115 35.7598 41.6895C35.6254 41.7675 35.5063 41.8412 35.4023 41.9105C35.2983 41.9755 35.1878 42.008 35.0708 42.008C34.9754 42.008 34.8931 41.9842 34.8238 41.9365C34.7588 41.8845 34.7046 41.8217 34.6613 41.748L34.4078 41.293ZM43.145 47.104C42.5946 47.104 42.17 46.9502 41.871 46.6425C41.5763 46.3305 41.429 45.8928 41.429 45.3295V41.4685H40.701C40.623 41.4685 40.5558 41.4447 40.4995 41.397C40.4431 41.345 40.415 41.2692 40.415 41.1695V40.604L41.4875 40.448L41.793 38.5305C41.8146 38.4568 41.8515 38.3983 41.9035 38.355C41.9555 38.3073 42.0248 38.2835 42.1115 38.2835H42.8265V40.461H44.666V41.4685H42.8265V45.232C42.8265 45.4703 42.885 45.6523 43.002 45.778C43.119 45.9037 43.275 45.9665 43.47 45.9665C43.5783 45.9665 43.6715 45.9535 43.7495 45.9275C43.8275 45.8972 43.8946 45.8668 43.951 45.8365C44.0073 45.8018 44.055 45.7715 44.094 45.7455C44.1373 45.7152 44.1785 45.7 44.2175 45.7C44.2955 45.7 44.3583 45.7433 44.406 45.83L44.822 46.5125C44.6053 46.7032 44.3496 46.8505 44.055 46.9545C43.7603 47.0542 43.457 47.104 43.145 47.104ZM50.0652 42.9375C50.0652 42.7035 50.0306 42.4868 49.9612 42.2875C49.8962 42.0838 49.7987 41.9083 49.6687 41.761C49.5387 41.6093 49.3762 41.4923 49.1812 41.41C48.9906 41.3233 48.7696 41.28 48.5182 41.28C48.0112 41.28 47.6126 41.4252 47.3222 41.7155C47.0319 42.0058 46.8477 42.4132 46.7697 42.9375H50.0652ZM46.7307 43.7955C46.7481 44.1725 46.8066 44.4997 46.9062 44.777C47.0059 45.05 47.1381 45.2775 47.3027 45.4595C47.4717 45.6415 47.6711 45.778 47.9007 45.869C48.1347 45.9557 48.3947 45.999 48.6807 45.999C48.9537 45.999 49.1899 45.9687 49.3892 45.908C49.5886 45.843 49.7619 45.7737 49.9092 45.7C50.0566 45.622 50.1822 45.5527 50.2862 45.492C50.3902 45.427 50.4856 45.3945 50.5722 45.3945C50.6849 45.3945 50.7716 45.4378 50.8322 45.5245L51.2287 46.038C51.0641 46.233 50.8777 46.3977 50.6697 46.532C50.4617 46.6663 50.2407 46.7768 50.0067 46.8635C49.7727 46.9458 49.5322 47.0043 49.2852 47.039C49.0382 47.078 48.7977 47.0975 48.5637 47.0975C48.1044 47.0975 47.6776 47.0217 47.2832 46.87C46.8932 46.714 46.5531 46.4865 46.2627 46.1875C45.9767 45.8885 45.7514 45.518 45.5867 45.076C45.4264 44.634 45.3462 44.1248 45.3462 43.5485C45.3462 43.0892 45.4177 42.6602 45.5607 42.2615C45.7081 41.8628 45.9161 41.5162 46.1847 41.2215C46.4577 40.9268 46.7871 40.695 47.1727 40.526C47.5627 40.3527 48.0026 40.266 48.4922 40.266C48.8996 40.266 49.2766 40.3332 49.6232 40.4675C49.9699 40.5975 50.2689 40.7903 50.5202 41.046C50.7716 41.3017 50.9666 41.6158 51.1052 41.9885C51.2482 42.3568 51.3197 42.7772 51.3197 43.2495C51.3197 43.4662 51.2959 43.6113 51.2482 43.685C51.2006 43.7587 51.1139 43.7955 50.9882 43.7955H46.7307Z" fill="#4B4B4B" fill-opacity="0.4"/>
</svg>
